<svg id="svg" version="1.1" xmlns="http://www.w3.org/2000/svg" style="display: block;" viewBox="0 0 1024 1024"><path d="M0 0 C337.92 0 675.84 0 1024 0 C1024 337.92 1024 675.84 1024 1024 C686.08 1024 348.16 1024 0 1024 C0 686.08 0 348.16 0 0 Z " transform="translate(0,0)" style="fill: #FEFEF4;"/><path d="M0 0 C1.72645752 0.00845947 1.72645752 0.00845947 3.48779297 0.01708984 C18.53477521 0.23050723 31.64006241 3.49754526 45.4375 9.3125 C46.32824219 9.67988281 47.21898437 10.04726562 48.13671875 10.42578125 C72.16225546 21.34647975 90.47438623 43.33227494 100.4375 67.3125 C110.86801312 96.96363224 107.91850035 127.3663625 94.51953125 155.42578125 C77.61053569 189.23526897 46.48640001 207.34156444 15.42578125 226.390625 C6.12376853 232.12529432 -2.40345227 238.0317273 -10.5625 245.3125 C-11.29597656 245.92609375 -12.02945313 246.5396875 -12.78515625 247.171875 C-29.72603014 261.40351472 -41.56139746 281.87258818 -46.5625 303.3125 C-46.8615625 304.56804687 -47.160625 305.82359375 -47.46875 307.1171875 C-54.08069772 336.89511056 -46.02022303 367.55573657 -30.75048828 393.44677734 C-28.30627485 397.28538792 -25.43484526 400.71517384 -22.41015625 404.11328125 C-20.7210129 406.12382608 -19.60875599 407.91871012 -18.5625 410.3125 C-26.19254424 416.69084414 -33.8420885 423.04347707 -41.5625 429.3125 C-42.43003906 430.07820313 -43.29757812 430.84390625 -44.19140625 431.6328125 C-44.97386719 432.18710937 -45.75632812 432.74140625 -46.5625 433.3125 C-50.5794153 431.97352823 -52.25654964 429.30617308 -54.75 426.0625 C-55.23831299 425.43134277 -55.72662598 424.80018555 -56.22973633 424.14990234 C-60.81071409 418.13657098 -64.85815609 411.90562239 -68.5625 405.3125 C-69.0589502 404.43634033 -69.0589502 404.43634033 -69.56542969 403.54248047 C-78.19907329 388.08040965 -83.63870242 370.75233488 -86.5625 353.3125 C-86.76617187 352.14847656 -86.96984375 350.98445313 -87.1796875 349.78515625 C-92.93484125 311.58827964 -84.25117989 273.63136433 -61.50463867 242.34985352 C-44.36986943 219.62715991 -21.05384081 204.55145976 2.57202148 189.36083984 C37.01889735 167.87710029 37.01889735 167.87710029 60.75 135.8125 C61.25648071 134.78116943 61.25648071 134.78116943 61.77319336 133.72900391 C68.48591923 119.31184159 69.22647248 98.98176099 64.75 83.8125 C64.03304237 81.9574348 63.26576689 80.12061203 62.4375 78.3125 C62.06367187 77.43078125 61.68984375 76.5490625 61.3046875 75.640625 C53.06784526 57.63957904 38.40835447 48.17460439 20.48046875 41.29296875 C4.72101315 36.21514673 -12.95821087 38.94747961 -27.41186523 46.35302734 C-42.03998604 54.29510875 -53.20266016 67.25129914 -58.4921875 83.09765625 C-60.03396635 88.43514778 -61.23508164 93.75601787 -61.5625 99.3125 C-61.62695312 100.29347656 -61.69140625 101.27445312 -61.7578125 102.28515625 C-62.49434547 123.66916349 -55.02672968 141.51568186 -40.73046875 157.140625 C-36.1663577 161.87335735 -30.95470304 165.57161023 -25.5625 169.3125 C-23.88555986 170.63288908 -22.21561732 171.96240419 -20.5625 173.3125 C-25.7742578 177.47639115 -31.10389369 181.41986321 -36.5625 185.25 C-42.24347197 189.24840085 -47.5118931 193.52912098 -52.5625 198.3125 C-72.1684955 189.96952319 -86.03297125 163.23665801 -93.80078125 144.8203125 C-103.89860711 119.76056218 -103.50334239 90.50147106 -93.75 65.4375 C-81.9130079 37.68993748 -61.36482365 17.65926309 -33.5625 6.3125 C-29.60250137 4.79705633 -25.65443908 3.42348346 -21.5625 2.3125 C-20.93480713 2.13662354 -20.30711426 1.96074707 -19.66040039 1.77954102 C-13.10964065 0.11162992 -6.7356697 -0.03447119 0 0 Z " transform="translate(514.5625,242.6875)" style="fill: #193F4F;"/><path d="M0 0 C0.43699219 1.10794922 0.43699219 1.10794922 0.8828125 2.23828125 C5.60316454 13.92041036 11.36073382 23.97588676 19 34 C17.60593331 37.0970887 15.7943749 39.75426308 13.82739258 42.51391602 C-2.17803408 65.27245263 -10.57319769 91.27201071 -14.63037109 118.55664062 C-14.89662905 120.31668659 -15.20230037 122.07093104 -15.53271484 123.82006836 C-16.06837925 127.46532904 -16.17967433 131.04688514 -16.203125 134.72265625 C-16.21018463 135.45634933 -16.21724426 136.19004242 -16.22451782 136.94596863 C-16.34241565 152.82982107 -16.35705974 168.40007817 -13 184 C-12.80132324 184.94166016 -12.60264648 185.88332031 -12.39794922 186.85351562 C-9.23766004 201.42635473 -4.8121964 215.27504921 1 229 C1.46744629 230.1144751 1.46744629 230.1144751 1.94433594 231.25146484 C10.44314471 251.20343021 22.68788186 268.36795865 37.3984375 284.17578125 C39.5525836 286.51429121 41.63291437 288.88733842 43.6875 291.3125 C46.56128439 294.62523952 49.66347672 297.50521022 53.0234375 300.3203125 C54.33827381 301.43766351 55.61592593 302.60033287 56.8515625 303.8046875 C57.72941406 304.64386719 57.72941406 304.64386719 58.625 305.5 C59.38683594 306.25796875 59.38683594 306.25796875 60.1640625 307.03125 C63.05701783 308.55774558 64.89727312 307.84825461 68 307 C70.37025822 305.88849036 72.56052267 304.7505153 74.8125 303.4375 C75.48265137 303.05255371 76.15280273 302.66760742 76.84326172 302.27099609 C92.88515697 292.91648803 108.87904311 283.1141977 123 271 C123.51804199 270.55881836 124.03608398 270.11763672 124.56982422 269.66308594 C149.22718686 248.49777188 164.85309729 219.2521098 169 187 C169.28472428 182.55816812 169.33442777 178.13756633 169.3125 173.6875 C169.30758545 172.50196533 169.3026709 171.31643066 169.29760742 170.0949707 C168.9798937 146.31206187 160.36891992 124.98322566 146.234375 106.05859375 C144.31976217 103.43771639 142.61324454 100.81270233 141 98 C141.88300781 97.45472656 142.76601563 96.90945313 143.67578125 96.34765625 C153.65215672 90.10910543 162.7235793 83.43870345 171 75 C175.35051611 76.50976815 177.24468948 79.79750544 179.625 83.5 C180.05594971 84.1614502 180.48689941 84.82290039 180.9309082 85.50439453 C204.52525942 122.25425435 214.35914558 161.69778871 206 205 C205.87141602 205.68481445 205.74283203 206.36962891 205.61035156 207.07519531 C199.36062756 239.0553352 181.17947744 268.58189226 158 291 C157.19046875 291.81726563 156.3809375 292.63453125 155.546875 293.4765625 C141.3522517 307.54056043 123.95536922 317.38616602 106.06152344 325.99462891 C91.5867567 333.05373471 76.88635798 340.61099355 64.25 350.6875 C61 353 61 353 59.01147461 352.77685547 C56.98008497 351.99230858 55.36486628 351.10667567 53.56640625 349.8828125 C52.60275146 349.22804932 52.60275146 349.22804932 51.61962891 348.56005859 C50.94077637 348.08648926 50.26192383 347.61291992 49.5625 347.125 C48.85528809 346.63467285 48.14807617 346.1443457 47.41943359 345.63916016 C40.58111347 340.82575711 34.2538756 335.54151361 28 330 C27.14019531 329.25105469 26.28039062 328.50210937 25.39453125 327.73046875 C15.02209743 318.57832126 5.50794372 308.91898966 -3 298 C-4.00748515 296.7445289 -5.01532077 295.489339 -6.0234375 294.234375 C-23.46312538 272.27221845 -36.12903919 247.55791985 -45 221 C-45.26264648 220.22398437 -45.52529297 219.44796875 -45.79589844 218.6484375 C-53.23131308 196.36976619 -57.22956208 173.46003053 -57.25 150 C-57.25100708 149.19998566 -57.25201416 148.39997131 -57.25305176 147.57571411 C-57.24140992 133.8614615 -56.3733089 120.5288837 -54 107 C-53.86078125 106.17338867 -53.7215625 105.34677734 -53.578125 104.49511719 C-50.22207605 85.08130627 -25.32229678 0 0 0 Z " transform="translate(400,397)" style="fill: #193F4E;"/><path d="M0 0 C4.91911014 3.79073855 8.58789863 7.92158317 12.3125 12.875 C12.88081543 13.62749023 13.44913086 14.37998047 14.03466797 15.15527344 C19.2427372 22.15531899 23.77865183 29.37266972 28 37 C28.43022461 37.76231934 28.86044922 38.52463867 29.30371094 39.31005859 C47.88372656 72.41518934 57.1730205 108.15551537 57.3125 146.0625 C57.31642761 147.09722946 57.31642761 147.09722946 57.32043457 148.15286255 C57.33840006 192.86576465 42.72507734 237.3623323 19 275 C18.35289062 276.02738281 17.70578125 277.05476563 17.0390625 278.11328125 C8.87159412 290.69784988 -0.58773198 302.21096268 -11 313 C-11.69689941 313.72413086 -12.39379883 314.44826172 -13.11181641 315.19433594 C-22.84197791 325.25095781 -32.57922995 334.88010702 -44 343 C-44.56541504 343.40976074 -45.13083008 343.81952148 -45.71337891 344.24169922 C-60.12894899 354.61235157 -76.1554179 363.32096946 -93 369 C-93.86109375 369.30421875 -94.7221875 369.6084375 -95.609375 369.921875 C-110.66847683 375.13842662 -129.17196834 375.18351669 -144 369 C-145.89453125 367.36328125 -145.89453125 367.36328125 -147 366 C-134.63669198 356.08785218 -121.44484409 347.76346683 -108.00927734 339.39086914 C-84.95127654 325.02047933 -63.2728917 310.30305272 -44 291 C-43.16082031 290.195625 -42.32164062 289.39125 -41.45703125 288.5625 C-21.72187517 269.43951272 -6.29079813 244.40043594 2.765625 218.4921875 C3.78285358 215.61433197 4.90244277 212.85557305 6.125 210.0625 C12.62813531 193.92608957 15.51235025 174.30211549 16 157 C16.02723145 156.0807373 16.05446289 155.16147461 16.08251953 154.21435547 C17.14126301 112.03108547 7.81181365 67.95995787 -20 35 C-18.36069656 31.3744506 -16.14237223 28.3411059 -13.8125 25.125 C-9.05897818 18.42917895 -5.49334153 11.42214114 -2 4 C-1.33767995 2.6645022 -0.67316272 1.33006548 0 0 Z " transform="translate(635,397)" style="fill: #194050;"/><path d="M0 0 C9.99636646 8.06022812 17.76429432 19.55861237 19.18359375 32.484375 C19.83563738 45.56970505 15.61562089 57.55305093 6.92578125 67.3828125 C-3.33597586 77.85754948 -12.65165587 82.41653439 -27.39453125 82.87109375 C-39.1770583 82.67038938 -48.57360032 79.65663019 -57.14453125 71.49609375 C-57.91667969 70.79871094 -58.68882812 70.10132813 -59.484375 69.3828125 C-67.9202209 61.03118469 -72.3570544 50.21317117 -72.76953125 38.37109375 C-72.08101379 24.63204088 -67.4711435 12.37876225 -57.58203125 2.74609375 C-41.11894649 -11.3223605 -17.67075938 -12.9070574 0 0 Z " transform="translate(544.14453125,312.50390625)" style="fill: #F5853C;"/><path d="M0 0 C0.68291766 2.12463273 1.12624743 3.53464839 0.53344727 5.71972656 C-0.17816888 8.76160063 -0.11135385 11.61132212 -0.09765625 14.734375 C-0.09443359 16.02988281 -0.09121094 17.32539063 -0.08789062 18.66015625 C-0.07953598 20.02343817 -0.07107104 21.38671942 -0.0625 22.75 C-0.05748168 24.12890465 -0.05291935 25.50781104 -0.04882812 26.88671875 C-0.03704093 30.25785659 -0.02058635 33.62890628 0 37 C-4.95025225 29.57462162 -5.32076036 20.6166559 -3.59863281 11.98925781 C-2.59580491 7.9286914 -1.34796864 3.95965788 0 0 Z " transform="translate(476,330)" style="fill: #E89863;"/><path d="M0 0 C0 0.33 0 0.66 0 1 C-6.15234375 1.09765625 -6.15234375 1.09765625 -8 1 C-8.33 0.67 -8.66 0.34 -9 0 C-10.51469448 -0.23192865 -12.03754562 -0.41215238 -13.5625 -0.5625 C-14.38878906 -0.64628906 -15.21507812 -0.73007812 -16.06640625 -0.81640625 C-16.70449219 -0.87699219 -17.34257813 -0.93757813 -18 -1 C-18 -0.34 -18 0.32 -18 1 C-22.62 1.33 -27.24 1.66 -32 2 C-24.75658042 -5.24341958 -8.84707327 -2.83106345 0 0 Z " transform="translate(532,306)" style="fill: #EB945B;"/><path d="M0 0 C0 3 0 3 -1.56054688 4.90112305 C-2.62885742 5.94586792 -2.62885742 5.94586792 -3.71875 7.01171875 C-4.48574219 7.76904297 -5.25273437 8.52636719 -6.04296875 9.30664062 C-6.85378906 10.09232422 -7.66460937 10.87800781 -8.5 11.6875 C-9.31082031 12.48478516 -10.12164062 13.28207031 -10.95703125 14.10351562 C-12.96482203 16.0758748 -14.9792687 18.04091492 -17 20 C-17.66 19.67 -18.32 19.34 -19 19 C-6.51480638 5.18223235 -6.51480638 5.18223235 0 0 Z " transform="translate(476,461)" style="fill: #2C4C59;"/><path d="M0 0 C0.33 0.99 0.66 1.98 1 3 C0.38125 3.2475 -0.2375 3.495 -0.875 3.75 C-3.4764628 5.28027224 -3.75061856 6.28075805 -5 9 C-6.60917381 11.37544706 -8.29944627 13.68932394 -10 16 C-10.99 15.67 -11.98 15.34 -13 15 C-11.58611621 13.24775086 -10.16877217 11.49829345 -8.75 9.75 C-7.96109375 8.77546875 -7.1721875 7.8009375 -6.359375 6.796875 C-4.33534195 4.39752456 -2.25877651 2.17588563 0 0 Z " transform="translate(446,271)" style="fill: #2B4956;"/><path d="M0 0 C-1.70048342 3.96779465 -3.98446138 7.02473938 -7.9375 8.9375 C-10.83998363 10.43271884 -12.77083186 12.64698918 -15 15 C-13.58884686 11.87729974 -11.889376 9.50346319 -9.625 6.9375 C-9.03976562 6.26589844 -8.45453125 5.59429687 -7.8515625 4.90234375 C-3.08008214 0 -3.08008214 0 0 0 Z " transform="translate(494,311)" style="fill: #E9975A;"/><path d="M0 0 C0.33 0.99 0.66 1.98 1 3 C-5.93 9.435 -5.93 9.435 -13 16 C-13.66 15.67 -14.32 15.34 -15 15 C-10.05 10.05 -5.1 5.1 0 0 Z " transform="translate(623,710)" style="fill: #C9D6D6;"/><path d="M0 0 C0.66 0.66 1.32 1.32 2 2 C-0.64 4.97 -3.28 7.94 -6 11 C-6.99 10.67 -7.98 10.34 -9 10 C-6.03 6.7 -3.06 3.4 0 0 Z " transform="translate(555,374)" style="fill: #FEEBD1;"/><path d="M0 0 C1.65 1.65 3.3 3.3 5 5 C2.34771188 6.07525194 -0.28368454 7.09456151 -3 8 C-1.125 1.125 -1.125 1.125 0 0 Z " transform="translate(635,397)" style="fill: #2F4C59;"/><path d="M0 0 C0.66 0 1.32 0 2 0 C1.731875 0.78375 1.46375 1.5675 1.1875 2.375 C-0.29233521 6.89239169 -1.64902274 11.44270338 -3 16 C-3.33 16 -3.66 16 -4 16 C-4.46450943 9.49686791 -3.32575612 5.5825192 0 0 Z " transform="translate(477,324)" style="fill: #FEEDD3;"/><path d="M0 0 C0 3 0 3 -2.25 5.625 C-4.85730848 7.87676642 -5.80056111 8.38472329 -9 9 C-8.06725891 7.87105124 -7.12859878 6.74699124 -6.1875 5.625 C-5.66542969 4.99851562 -5.14335937 4.37203125 -4.60546875 3.7265625 C-3 2 -3 2 0 0 Z " transform="translate(505,486)" style="fill: #E0EEEA;"/><path d="M0 0 C0 3.63195496 -0.95453155 4.74713911 -3 7.6875 C-3.8353125 8.89986328 -3.8353125 8.89986328 -4.6875 10.13671875 C-5.120625 10.75160156 -5.55375 11.36648438 -6 12 C-6.66 11.34 -7.32 10.68 -8 10 C-6.85500893 8.52018126 -5.708983 7.04116318 -4.5625 5.5625 C-3.60537109 4.32693359 -3.60537109 4.32693359 -2.62890625 3.06640625 C-1 1 -1 1 0 0 Z " transform="translate(493,497)" style="fill: #DCE6E3;"/><path d="M0 0 C0.66 0 1.32 0 2 0 C1.32829194 3.8063457 0.27253436 7.35206816 -1 11 C-1.66 11 -2.32 11 -3 11 C-2.01 7.37 -1.02 3.74 0 0 Z " transform="translate(457,320)" style="fill: #DAE4E5;"/><path d="M0 0 C0.66 0.33 1.32 0.66 2 1 C0.9375 3 0.9375 3 -1 5 C-4.6875 5.25 -4.6875 5.25 -8 5 C-7.67 4.34 -7.34 3.68 -7 3 C-5.67203709 2.64587656 -4.33783393 2.31478446 -3 2 C-2.01 1.34 -1.02 0.68 0 0 Z " transform="translate(465,746)" style="fill: #E1EBE9;"/><path d="M0 0 C0.66 0.33 1.32 0.66 2 1 C-4.14285714 6.57142857 -4.14285714 6.57142857 -9 7 C-6.03716687 4.61327331 -3.05729491 2.2646629 0 0 Z " transform="translate(539,703)" style="fill: #DEE5E8;"/><path d="M0 0 C0.33 0.99 0.66 1.98 1 3 C-0.21484375 4.82421875 -0.21484375 4.82421875 -1.9375 6.6875 C-2.50339844 7.31011719 -3.06929687 7.93273437 -3.65234375 8.57421875 C-4.09707031 9.04472656 -4.54179688 9.51523437 -5 10 C-5.33 9.01 -5.66 8.02 -6 7 C-4.78515625 5.17578125 -4.78515625 5.17578125 -3.0625 3.3125 C-2.49660156 2.68988281 -1.93070313 2.06726563 -1.34765625 1.42578125 C-0.90292969 0.95527344 -0.45820312 0.48476563 0 0 Z " transform="translate(609,668)" style="fill: #33525E;"/><path d="M0 0 C0.33 0.99 0.66 1.98 1 3 C-0.32 4.32 -1.64 5.64 -3 7 C-3.66 5.68 -4.32 4.36 -5 3 C-3.35 2.01 -1.7 1.02 0 0 Z " transform="translate(546,492)" style="fill: #24454C;"/><path d="M0 0 C0 3.90838866 -1.50567876 5.11594107 -4 8 C-5.32 7.67 -6.64 7.34 -8 7 C-5.36 4.69 -2.72 2.38 0 0 Z " transform="translate(472,431)" style="fill: #E3EEEB;"/><path d="M0 0 C-1.28519565 2.86697492 -2.57129254 4.97607712 -5 7 C-5.66 7 -6.32 7 -7 7 C-3.86206897 0 -3.86206897 0 0 0 Z " transform="translate(598,683)" style="fill: #3B545D;"/><path d="M0 0 C0.99 0.33 1.98 0.66 3 1 C0.16569547 4.2542015 -1.68607774 5.5206753 -6 6 C-4 4 -2 2 0 0 Z " transform="translate(519,671)" style="fill: #274953;"/><path d="M0 0 C0.66 0.33 1.32 0.66 2 1 C0.875 2.9375 0.875 2.9375 -1 5 C-4.1875 5.75 -4.1875 5.75 -7 6 C-4.74259377 3.66475218 -2.7194239 1.81294927 0 0 Z " transform="translate(570,442)" style="fill: #DFE9E6;"/><path d="M0 0 C0.33 0.99 0.66 1.98 1 3 C-1.97 5.475 -1.97 5.475 -5 8 C-4.45773019 4.20411134 -2.79872437 2.52788007 0 0 Z " transform="translate(623,710)" style="fill: #D3DFE0;"/><path d="M0 0 C0.66 0 1.32 0 2 0 C0.60667426 3.36720387 -0.9789286 4.9859524 -4 7 C-4.33 6.01 -4.66 5.02 -5 4 C-4.01 4 -3.02 4 -2 4 C-1.34 2.68 -0.68 1.36 0 0 Z " transform="translate(557,401)" style="fill: #E5EFEC;"/><path d="M0 0 C1.32 0 2.64 0 4 0 C4.66 2.31 5.32 4.62 6 7 C1.125 3.375 1.125 3.375 0 0 Z " transform="translate(481,376)" style="fill: #E58749;"/><path d="M0 0 C2 2 2 2 2.3125 4.4375 C2 7 2 7 -1 10 C-0.67 6.7 -0.34 3.4 0 0 Z " transform="translate(569,584)" style="fill: #47636A;"/><path d="M0 0 C-2.8125 2.0625 -2.8125 2.0625 -6 4 C-6.99 3.67 -7.98 3.34 -9 3 C-7.01532024 -0.96935951 -3.9567243 -1.41311582 0 0 Z " transform="translate(496,310)" style="fill: #FEEDD5;"/></svg>